<svg width="201" height="201" viewBox="0 0 201 201" fill="none" xmlns="http://www.w3.org/2000/svg">
<path d="M184.043 0.0330811H16.4733C7.51745 0.0330811 0.258179 7.29235 0.258179 16.2482V183.818C0.258179 192.774 7.51745 200.033 16.4733 200.033H184.043C192.999 200.033 200.258 192.774 200.258 183.818V16.2482C200.258 7.29235 192.999 0.0330811 184.043 0.0330811ZM188.968 111.498L111.723 188.743C105.389 195.077 95.1222 195.077 88.7935 188.743L11.5481 111.498C5.21422 105.164 5.21422 94.8971 11.5481 88.5684L88.7935 11.323C95.1273 4.98912 105.394 4.98912 111.723 11.323L188.968 88.5684C195.302 94.9022 195.302 105.169 188.968 111.498Z" fill="#F26552"/>
<path d="M134.071 50.005H66.4451C57.4893 50.005 50.23 57.2642 50.23 66.2201V133.846C50.23 142.802 57.4893 150.061 66.4451 150.061H134.071C143.027 150.061 150.287 142.802 150.287 133.846V66.2201C150.287 57.2642 143.027 50.005 134.071 50.005ZM138.909 111.498L111.723 138.684C105.389 145.018 95.1223 145.018 88.7936 138.684L61.6073 111.498C55.2734 105.164 55.2734 94.8972 61.6073 88.5685L88.7936 61.3823C95.1274 55.0484 105.394 55.0484 111.723 61.3823L138.909 88.5685C145.243 94.9024 145.243 105.169 138.909 111.498Z" fill="#F26552"/>
</svg>
