<svg width="14" height="25" viewBox="0 0 14 25" fill="none" xmlns="http://www.w3.org/2000/svg">
<path d="M6.85462 0C10.7354 0 13.891 2.68363 13.9637 6.41875C14 7.47024 13.2384 8.05089 12.4041 8.05089C11.6061 8.05089 10.9172 7.47104 10.8808 6.49143C10.8445 4.38765 9.06761 2.82819 6.81828 2.82819C4.71432 2.82819 3.11919 4.31497 3.11919 6.34607C3.11919 8.55806 4.60609 9.53767 7.68894 10.6618C10.989 11.8587 14 13.2728 14 17.4795C14 21.1428 11.1344 24.08 7.14538 24.08C3.22822 24.0808 0 21.3245 0 17.5894C0 15.2684 1.12426 13.6362 2.21218 13.6362C3.15553 13.6362 3.73543 14.2524 3.73543 15.0866C3.73543 15.8119 3.11919 16.1381 3.11919 17.444C3.11919 19.765 5.00508 21.2518 7.14538 21.2518C9.39391 21.2518 10.8808 19.6923 10.8808 17.8066C10.8808 15.4856 9.39391 14.5068 6.31107 13.4182C2.86558 12.1858 0 10.6982 0 6.60046C0 2.90168 2.97381 0 6.85462 0Z" fill="#00D639"/>
</svg>
