<svg width="870" height="182" viewBox="0 0 870 182" fill="none" xmlns="http://www.w3.org/2000/svg">
<path d="M166.741 0H14.7114C6.58607 0 0 6.58607 0 14.7114V166.741C0 174.867 6.58607 181.453 14.7114 181.453H166.741C174.867 181.453 181.453 174.867 181.453 166.741V14.7114C181.453 6.58607 174.867 0 166.741 0ZM171.21 101.128L101.128 171.21C95.3814 176.956 86.0667 176.956 80.3249 171.21L10.2429 101.128C4.49644 95.3814 4.49644 86.0667 10.2429 80.3249L80.3249 10.2429C86.0714 4.49644 95.3861 4.49644 101.128 10.2429L171.21 80.3249C176.956 86.0714 176.956 95.3861 171.21 101.128Z" fill="#F26552"/>
<path d="M121.404 45.3377H60.049C51.9237 45.3377 45.3376 51.9238 45.3376 60.0491V121.404C45.3376 129.529 51.9237 136.115 60.049 136.115H121.404C129.529 136.115 136.115 129.529 136.115 121.404V60.0491C136.115 51.9238 129.529 45.3377 121.404 45.3377ZM125.793 101.128L101.128 125.793C95.3815 131.54 86.0668 131.54 80.325 125.793L55.6599 101.128C49.9134 95.3816 49.9134 86.0668 55.6599 80.325L80.325 55.6599C86.0715 49.9134 95.3862 49.9134 101.128 55.6599L125.793 80.325C131.54 86.0715 131.54 95.3862 125.793 101.128Z" fill="#F26552"/>
<path d="M228.12 139V126.072L299.032 51.448L309.912 57.08H228.632V43H316.568V55.8L245.528 130.68L236.184 124.92H316.952V139H228.12ZM367.032 140.792C358.584 140.792 351.075 139.213 344.504 136.056C337.933 132.813 332.771 128.333 329.016 122.616C325.261 116.899 323.384 110.243 323.384 102.648C323.384 95.1387 325.133 88.568 328.632 82.936C332.216 77.2187 337.123 72.7813 343.352 69.624C349.667 66.3813 356.877 64.76 364.984 64.76C373.091 64.76 380.088 66.5947 385.976 70.264C391.949 73.848 396.557 78.9253 399.8 85.496C403.043 92.0667 404.664 99.7893 404.664 108.664H336.44V95.992H396.344L388.024 100.728C387.768 95.9493 386.616 91.8533 384.568 88.44C382.605 85.0267 379.917 82.424 376.504 80.632C373.176 78.7547 369.208 77.816 364.6 77.816C359.736 77.816 355.469 78.7973 351.8 80.76C348.216 82.7227 345.4 85.496 343.352 89.08C341.304 92.5787 340.28 96.76 340.28 101.624C340.28 107 341.475 111.651 343.864 115.576C346.339 119.501 349.795 122.531 354.232 124.664C358.755 126.712 364.088 127.736 370.232 127.736C375.779 127.736 381.453 126.883 387.256 125.176C393.059 123.384 398.179 120.909 402.616 117.752V129.784C398.179 133.197 392.76 135.885 386.36 137.848C380.045 139.811 373.603 140.792 367.032 140.792ZM415.172 66.552H431.812L436.164 92.664V139H419.524V90.232L415.172 66.552ZM464.964 64.76C471.791 64.76 477.593 66.1253 482.372 68.856C487.151 71.5867 490.777 75.512 493.252 80.632C495.812 85.6667 497.092 91.768 497.092 98.936V139H480.452V101.624C480.452 94.0293 478.66 88.312 475.076 84.472C471.577 80.5467 466.415 78.584 459.588 78.584C454.895 78.584 450.756 79.6507 447.172 81.784C443.673 83.832 440.943 86.7333 438.98 90.488C437.103 94.2427 436.164 98.6373 436.164 103.672L430.276 100.472C431.044 92.9627 433.007 86.5627 436.164 81.272C439.321 75.9813 443.375 71.928 448.324 69.112C453.273 66.2107 458.82 64.76 464.964 64.76ZM523.138 84.984H592.13V99.832H523.138V84.984ZM594.178 43V57.848H522.626L531.842 48.248V139H514.946V43H594.178ZM608.049 40.44H624.689V139H608.049V40.44ZM682.636 140.792C673.846 140.792 666.124 139.213 659.468 136.056C652.897 132.813 647.734 128.333 643.98 122.616C640.31 116.899 638.476 110.285 638.476 102.776C638.476 95.1813 640.31 88.568 643.98 82.936C647.734 77.2187 652.897 72.7813 659.468 69.624C666.124 66.3813 673.846 64.76 682.636 64.76C691.425 64.76 699.105 66.3813 705.676 69.624C712.332 72.7813 717.494 77.2187 721.164 82.936C724.918 88.568 726.796 95.1813 726.796 102.776C726.796 110.285 724.918 116.899 721.164 122.616C717.494 128.333 712.332 132.813 705.676 136.056C699.105 139.213 691.425 140.792 682.636 140.792ZM682.636 127.736C688.268 127.736 693.089 126.712 697.1 124.664C701.196 122.616 704.353 119.757 706.572 116.088C708.79 112.333 709.9 107.896 709.9 102.776C709.9 97.656 708.79 93.2613 706.572 89.592C704.353 85.8373 701.196 82.936 697.1 80.888C693.089 78.84 688.268 77.816 682.636 77.816C677.089 77.816 672.268 78.84 668.172 80.888C664.076 82.936 660.918 85.8373 658.7 89.592C656.481 93.2613 655.372 97.656 655.372 102.776C655.372 107.896 656.481 112.333 658.7 116.088C660.918 119.757 664.076 122.616 668.172 124.664C672.268 126.712 677.089 127.736 682.636 127.736ZM832.187 130.424H826.299L851.259 66.552H867.899L838.715 139H821.691L796.091 74.104H802.619L776.379 139H759.355L730.299 66.552H747.195L772.283 130.424H766.011L791.099 66.552H807.739L832.187 130.424Z" fill="#F26552"/>
</svg>
